<svg width="60" height="61" viewBox="0 0 60 61" fill="none" xmlns="http://www.w3.org/2000/svg">
<g id="important links-04">
<path id="Vector" d="M30.6986 38.8293C27.5493 38.8293 24.4 38.8293 21.2507 38.8379C20.8797 38.8379 20.7478 38.7759 20.6957 38.3635C20.1585 34.0608 20.1619 29.7083 20.7058 25.4064C20.7493 25.0646 20.8623 25.0113 21.1667 25.0127C27.5377 25.0204 33.9082 25.0204 40.2783 25.0127C40.5797 25.0127 40.7 25.0574 40.7435 25.4035C41.2892 29.7234 41.2892 34.0942 40.7435 38.414C40.6986 38.7759 40.5797 38.8365 40.2536 38.8365C37.0696 38.825 33.8841 38.8293 30.6986 38.8293Z" fill="#292828"/>
<path id="Vector_2" d="M40.0797 21.5646H39.5652C33.6826 21.5646 27.7986 21.5646 21.9145 21.5776C21.4203 21.5776 21.3783 21.468 21.4797 21.0253C22.2826 17.7085 23.3638 14.5114 25.2725 11.6446C26.0681 10.4534 26.9942 9.38051 28.2087 8.5816C29.8391 7.51157 31.4841 7.47408 33.1362 8.51238C34.3203 9.25649 35.2304 10.2746 36.0145 11.4081C37.9333 14.1855 39.0319 17.3047 39.8435 20.5408C39.929 20.8681 40 21.1984 40.0797 21.5646Z" fill="#292828"/>
<path id="Vector_3" d="M21.3666 42.3037H40.0869C39.1956 46.1079 38.0174 49.7607 35.6521 52.9246C34.9579 53.8945 34.0832 54.7228 33.0753 55.3646C31.442 56.3741 29.829 56.3193 28.2377 55.2853C26.7637 54.3278 25.7188 52.978 24.8232 51.5085C23.1 48.6676 22.1043 45.5542 21.3666 42.3037Z" fill="#292828"/>
<path id="Vector_4" d="M50.0565 38.8297C48.2464 38.8297 46.4333 38.8196 44.6261 38.8384C44.2551 38.8384 44.1913 38.7446 44.2377 38.3913C44.7638 34.0882 44.7638 29.7374 44.2377 25.4342C44.1971 25.1054 44.2377 25.0016 44.5971 25.0103C48.2174 25.0228 51.8372 25.0228 55.4565 25.0103C55.771 25.0103 55.8768 25.1054 55.9565 25.4083C57.066 29.6349 57.0804 34.0725 55.9985 38.3062C55.887 38.7562 55.6928 38.8441 55.2739 38.8384C53.5319 38.8153 51.7942 38.8297 50.0565 38.8297Z" fill="#292828"/>
<path id="Vector_5" d="M11.3884 38.8297C9.59707 38.8297 7.80432 38.8297 6.01301 38.8297C5.71591 38.8297 5.57823 38.7749 5.49562 38.4518C4.36539 34.1738 4.36539 29.6776 5.49562 25.3996C5.57533 25.0924 5.68838 25.0044 5.99852 25.0059C9.61881 25.0155 13.2391 25.0155 16.8594 25.0059C17.2275 25.0059 17.2521 25.1155 17.213 25.4385C16.6862 29.7421 16.6862 34.0934 17.213 38.397C17.2579 38.7619 17.1797 38.8426 16.8203 38.8398C15.0087 38.821 13.1985 38.8297 11.3884 38.8297Z" fill="#292828"/>
<path id="Vector_6" d="M36.6464 6.79492C40 7.49866 43.0319 8.89171 45.8188 10.8472C49.6898 13.5626 52.8956 17.5471 54.542 21.5186C54.3971 21.6137 54.2362 21.5662 54.0869 21.5662C50.7739 21.5662 47.4609 21.5662 44.1478 21.5791C43.7362 21.5791 43.6145 21.4551 43.5319 21.0658C42.6623 16.9674 41.3406 13.0391 38.9449 9.5392C38.2698 8.55258 37.5 7.63351 36.6464 6.79492Z" fill="#292828"/>
<path id="Vector_7" d="M36.6508 57.0591C39.3116 54.4734 40.9029 51.2994 42.1218 47.9091C42.7249 46.2185 43.203 44.4863 43.5522 42.7263C43.6029 42.4797 43.6203 42.272 43.9957 42.2734C47.4739 42.2907 50.9522 42.2835 54.4305 42.285C54.4836 42.2939 54.5359 42.3069 54.587 42.3239C52.8398 46.2742 50.124 49.7248 46.6884 52.3594C43.7424 54.6605 40.3106 56.2674 36.6508 57.0591Z" fill="#292828"/>
<path id="Vector_8" d="M6.84491 21.5652C8.7681 17.3053 11.5594 13.8357 15.2681 11.1044C18.0945 9.01939 21.3202 7.53279 24.7464 6.73633C24.7261 6.85314 24.7362 6.92236 24.7058 6.94976C22.2913 9.25708 20.7855 12.1124 19.6101 15.1696C18.8797 17.0989 18.3059 19.0833 17.8942 21.1038C17.8507 21.3071 17.8942 21.5652 17.5174 21.5638C13.9898 21.5609 10.4609 21.5652 6.84491 21.5652Z" fill="#292828"/>
<path id="Vector_9" d="M24.8464 57.0705C17.6478 55.6356 10.116 50.0043 6.91595 42.3368C7.03914 42.2301 7.18697 42.2863 7.3203 42.2863C10.6536 42.2863 13.9797 42.2863 17.3087 42.2719C17.7333 42.2719 17.8377 42.4161 17.9174 42.7939C18.7203 46.5866 19.9246 50.2322 22.0015 53.5489C22.7193 54.7148 23.5784 55.7886 24.5594 56.746C24.6377 56.8181 24.6957 56.8989 24.8464 57.0705Z" fill="#292828"/>
</g>
</svg>
